<svg id="aperture" xmlns="http://www.w3.org/2000/svg" width="28" height="28" viewBox="0 0 28 28">
  <path id="Path_6257" data-name="Path 6257" d="M14,2A12,12,0,1,0,26,14,12,12,0,0,0,14,2ZM24.149,12.406l-5.006,2.9V5.1a10.286,10.286,0,0,1,5.006,7.3ZM10.571,16.3V11.7L14,9.714l3.429,1.98v4.594l-3.429,2Zm6.857-12V9.714L9.149,4.931a10.2,10.2,0,0,1,8.28-.617ZM7.554,6.011l4.731,2.717L3.714,13.674a10.286,10.286,0,0,1,3.84-7.68Zm-3.7,9.574,5.006-2.9V22.9A10.286,10.286,0,0,1,3.851,15.586Zm6.72,8.1v-5.4l8.289,4.783A10.217,10.217,0,0,1,14,24.286,10.329,10.329,0,0,1,10.571,23.686Zm9.874-1.714-4.731-2.709,8.571-4.946a10.286,10.286,0,0,1-3.84,7.689Z" transform="translate(0 0)" fill="#fff"/>
  <rect id="_Transparent_Rectangle_" data-name="&lt;Transparent Rectangle&gt;" width="28" height="28" fill="none"/>
</svg>
