<svg xmlns="http://www.w3.org/2000/svg" width="38" height="38" viewBox="0 0 38 38"><path d="M2,12.563v9.5a3.563,3.563,0,0,0,3.563,3.563H11.5v-9.5H6.75V18.5H9.125v4.75H5.563a1.188,1.188,0,0,1-1.187-1.187v-9.5a1.187,1.187,0,0,1,1.188-1.187H11.5V9H5.563A3.563,3.563,0,0,0,2,12.563Z" transform="translate(0.375 1.688)" fill="#fff"/><path d="M31.5,11.375V9H22V25.625h2.375V18.5h5.938V16.125H24.375v-4.75Z" transform="translate(4.125 1.688)" fill="#fff"/><path d="M12,9v2.375h3.563V23.25H12v2.375h9.5V23.25H17.938V11.375H21.5V9Z" transform="translate(2.25 1.688)" fill="#fff"/><rect width="38" height="38" fill="none"/></svg>