<svg xmlns="http://www.w3.org/2000/svg" xmlns:xlink="http://www.w3.org/1999/xlink" width="31" height="31" viewBox="0 0 31 31"><defs><clipPath id="a"><path d="M315.607-186.964v-9.964h-4.429v2.214h2.214v7.75h-3.321v2.214h8.857v-2.214Zm-1.107-15.5a1.661,1.661,0,0,0-1.661,1.661,1.661,1.661,0,0,0,1.661,1.661,1.661,1.661,0,0,0,1.661-1.661,1.661,1.661,0,0,0-1.661-1.661Zm0,25.464A15.5,15.5,0,0,1,299-192.5,15.5,15.5,0,0,1,314.5-208,15.5,15.5,0,0,1,330-192.5,15.517,15.517,0,0,1,314.5-177Zm0-28.786A13.286,13.286,0,0,0,301.214-192.5,13.286,13.286,0,0,0,314.5-179.214,13.286,13.286,0,0,0,327.786-192.5,13.3,13.3,0,0,0,314.5-205.786Z" transform="translate(-299 208)" fill="#8d7249" clip-rule="evenodd"/></clipPath><clipPath id="b"><path d="M298-173.571h35.429V-209H298Z" transform="translate(-298 209)" fill="#8d7249"/></clipPath><clipPath id="c"><rect width="53" height="53" transform="translate(0.071 0.071)" fill="#8d7249"/></clipPath><clipPath id="d"><path d="M299-177h31v-31H299Z" transform="translate(-299 208)" fill="#8d7249"/></clipPath></defs><g clip-path="url(#a)"><g transform="translate(-2.214 -2.214)" clip-path="url(#b)"><g transform="translate(-8.857 -8.857)" style="isolation:isolate"><g clip-path="url(#c)"><g transform="translate(11.071 11.071)" clip-path="url(#d)"><path d="M294-213h53.143v53.143H294Z" transform="translate(-305.071 201.929)" fill="#8d7249"/></g></g></g></g></g></svg>