<svg id="ISO" xmlns="http://www.w3.org/2000/svg" width="28" height="28" viewBox="0 0 28 28">
  <path id="Path_6252" data-name="Path 6252" d="M27.173,21.069H23.724A1.724,1.724,0,0,1,22,19.345V10.724A1.724,1.724,0,0,1,23.724,9h3.448A1.724,1.724,0,0,1,28.9,10.724v8.621A1.724,1.724,0,0,1,27.173,21.069ZM23.724,10.724v8.621h3.448V10.724Z" transform="translate(-3.034 -1.241)" fill="#fff"/>
  <path id="Path_6253" data-name="Path 6253" d="M17.173,21.069H12V19.345h5.173V15.9H13.724A1.724,1.724,0,0,1,12,14.173V10.724A1.724,1.724,0,0,1,13.724,9H18.9v1.724H13.724v3.448h3.448A1.724,1.724,0,0,1,18.9,15.9v3.448A1.724,1.724,0,0,1,17.173,21.069Z" transform="translate(-1.655 -1.241)" fill="#fff"/>
  <path id="Path_6254" data-name="Path 6254" d="M2,10.724H4.586v8.621H2v1.724H8.9V19.345H6.31V10.724H8.9V9H2Z" transform="translate(-0.276 -1.241)" fill="#fff"/>
  <rect id="_Transparent_Rectangle_" data-name="&lt;Transparent Rectangle&gt;" width="28" height="28" fill="none"/>
</svg>
