<svg xmlns="http://www.w3.org/2000/svg" width="25" height="25" viewBox="0 0 25 25"><path d="M21.616,13.537V12.342l1.5-1.312a1.562,1.562,0,0,0,.3-1.992L21.569,5.914a1.576,1.576,0,0,0-1.851-.7l-1.9.64A8.865,8.865,0,0,0,16.8,5.266L16.4,3.3A1.562,1.562,0,0,0,14.837,2.04H11.182A1.562,1.562,0,0,0,9.619,3.3l-.4,1.968a8.966,8.966,0,0,0-1.031.586L6.331,5.18a1.562,1.562,0,0,0-.5-.047,1.562,1.562,0,0,0-1.351.781L2.637,9.038A1.562,1.562,0,0,0,2.957,11l1.476,1.351v1.195L2.957,14.857a1.562,1.562,0,0,0-.32,1.992L4.48,19.972a1.576,1.576,0,0,0,1.851.7l1.9-.64a8.865,8.865,0,0,0,1.023.586l.4,1.968a1.562,1.562,0,0,0,1.562,1.257H14.9a1.562,1.562,0,0,0,1.562-1.257l.4-1.968a8.967,8.967,0,0,0,1.031-.586l1.89.64a1.576,1.576,0,0,0,1.851-.7l1.781-3.124a1.562,1.562,0,0,0-.32-1.96Zm-1.4,5.655-2.679-.906a6.92,6.92,0,0,1-2.117,1.226l-.555,2.8H11.182l-.555-2.773a7.31,7.31,0,0,1-2.109-1.226l-2.687.875L3.988,16.067l2.124-1.874a6.951,6.951,0,0,1,0-2.445L3.988,9.819,5.831,6.695,8.51,7.6a6.92,6.92,0,0,1,2.117-1.226l.555-2.8h3.686l.555,2.773A7.31,7.31,0,0,1,17.531,7.57l2.687-.875,1.843,3.124-2.124,1.874a6.951,6.951,0,0,1,0,2.445l2.124,1.929Z" transform="translate(-0.528 -0.447)" fill="#fff"/><path d="M14.686,19.372a4.686,4.686,0,1,1,4.686-4.686,4.639,4.639,0,0,1-4.686,4.686Zm0-7.81a3.054,3.054,0,1,0,2.23.894A3.054,3.054,0,0,0,14.686,11.562Z" transform="translate(-2.19 -2.19)" fill="#fff"/><rect width="25" height="25" fill="none"/></svg>